PathFileType	4	(X/Y/Z)	C:\Users\WrightLab\Desktop\Jo\P1_boxCal27.trc
DataRate	CameraRate	NumFrames	NumMarkers	Units	OrigDataRate	OrigDataStartFrame	OrigNumFrames
100.00	100.00	       9	19	mm	100.00	233	       465
Frame#	Time	Headset_Front			Headset_Back			Headset_Left			Headset_Right			Left_Shoulder			Right_Shoulder			Sternum			C7			Left Elbow			Right Elbow			Left Wrist			Right Wrist			Left ASIS			Right ASIS			S2			Left Knee			Right Knee			Left Ankle			Right Ankle			
		X1	Y1	Z1	X2	Y2	Z2	X3	Y3	Z3	X4	Y4	Z4	X5	Y5	Z5	X6	Y6	Z6	X7	Y7	Z7	X8	Y8	Z8	X9	Y9	Z9	X10	Y10	Z10	X11	Y11	Z11	X12	Y12	Z12	X13	Y13	Z13	X14	Y14	Z14	X15	Y15	Z15	X16	Y16	Z16	X17	Y17	Z17	X18	Y18	Z18	X19	Y19	Z19	

233	2.320	-0.02294	1408.49683	1192.19983	-55.89734	1539.56116	923.15594	73.42988	1477.16125	1009.04401	-124.86612	1447.63953	1115.85266	96.54935	1300.32739	840.51178	-204.10185	1297.95740	1073.54407	20.38415	1204.37561	1075.78955	-112.04191	1299.73792	864.48242	117.96837	988.41443	744.54749	-296.82465	1024.93384	1092.93103	233.74217	807.18158	733.29218	-253.63672	835.01062	1261.72522	120.23652	925.63843	1025.77161	-43.95535	920.92627	1141.69275	-145.89622	915.82501	824.76331	239.82346	538.69495	946.22382	-121.54052	467.33121	1054.07629	189.18628	192.48291	834.68854	-17.14754	96.15578	960.27863	
234	2.330	1.81027	1408.43347	1200.30444	-49.92270	1540.14465	930.58923	77.98992	1476.32275	1019.37579	-121.44382	1448.34998	1121.95264	103.62337	1299.80957	850.33490	-200.65013	1297.80322	1078.13928	23.22688	1203.74280	1084.37659	-104.87733	1300.05005	870.65985	124.58582	989.03827	753.83502	-292.48563	1024.64600	1098.55359	239.74333	807.90509	740.40448	-245.48544	838.75763	1271.69922	124.05201	925.21277	1036.76660	-42.86033	921.34845	1148.90552	-137.59116	916.16180	829.09460	244.02028	539.67572	962.07819	-119.96597	466.73199	1056.56091	211.74229	186.85074	858.64868	-16.31409	96.05795	959.66455	
235	2.340	3.82516	1407.75183	1208.48572	-44.12245	1540.08447	938.26935	83.05707	1476.01135	1027.57178	-117.35668	1447.98438	1128.47302	111.59810	1299.85498	861.81140	-196.95845	1297.67212	1082.65015	25.79251	1202.71021	1093.06213	-97.75961	1300.28113	877.37567	131.61104	989.27985	762.26129	-289.33469	1023.92932	1103.19373	245.82617	808.24908	747.76276	-237.42371	842.51227	1281.13098	127.66635	924.22241	1047.75342	-44.30736	918.17859	1153.26599	-128.19131	916.09790	833.73157	246.60089	538.91229	977.91296	-118.09013	465.84567	1059.04443	233.04077	181.05653	884.29340	-16.15480	96.52252	960.39313	
236	2.350	5.51736	1407.27612	1216.96301	-36.30468	1538.77954	945.77045	87.75759	1475.34509	1037.49329	-114.57421	1447.77258	1135.36328	118.88586	1299.54028	872.05957	-194.00594	1297.10217	1087.97339	28.74287	1202.08398	1101.72437	-90.45185	1299.75928	883.94135	138.70100	989.50885	770.65509	-285.49435	1023.00421	1108.35706	253.14362	808.33899	756.27557	-230.34225	845.79498	1290.81702	130.46948	923.16791	1059.25928	-43.70146	916.89673	1159.60388	-119.92495	917.07703	837.46887	250.25835	538.26160	993.08923	-117.74786	465.48840	1062.04675	254.23309	175.92641	911.11652	-15.10425	96.15918	959.97900	
237	2.360	7.07815	1406.76978	1225.24805	-31.03776	1538.61365	953.74341	92.69512	1474.00598	1047.59644	-112.63594	1448.48413	1141.84448	125.65546	1298.82446	882.68451	-190.31949	1296.31775	1092.54492	31.44823	1200.70630	1109.10925	-83.59170	1299.86951	890.85944	146.01904	989.99750	779.74066	-280.58057	1021.78015	1114.10254	259.43332	808.26013	764.72113	-222.88980	849.26172	1300.18250	133.50243	921.68427	1070.91284	-43.40003	915.76489	1166.47534	-110.66808	916.60443	842.14441	253.17377	536.71405	1008.07104	-115.79843	464.07077	1063.98071	274.73190	171.51323	939.14868	-14.48891	96.56523	959.55048	
238	2.370	9.02512	1405.49463	1233.59021	-22.67765	1537.88831	961.31342	97.38778	1472.79749	1057.31580	-109.17106	1448.01489	1148.34351	132.82745	1298.22168	893.18976	-186.85629	1295.47095	1097.62305	34.38091	1200.00916	1118.49341	-76.96146	1300.01257	897.11255	153.64861	990.04230	790.51398	-277.61240	1021.13971	1118.27722	265.96924	807.95715	773.74542	-216.84813	852.90149	1309.22498	136.35333	920.02826	1082.42834	-42.91610	914.16913	1171.64343	-101.27543	916.77332	846.74988	255.15614	534.14594	1021.74139	-112.46359	462.37048	1065.45813	293.03854	168.27374	967.80725	-14.33820	97.08724	960.20721	
239	2.380	10.69484	1404.69446	1241.77759	-17.10859	1536.94385	969.36810	101.60598	1471.76379	1066.75513	-105.63474	1446.90344	1155.06677	139.69528	1297.58618	903.88000	-183.59753	1294.48108	1102.41846	37.09392	1198.87207	1128.34705	-69.53378	1298.76697	904.63940	161.31943	990.21973	799.18372	-272.98029	1020.28967	1123.67102	272.74847	807.75745	782.65283	-211.30501	855.65680	1317.94897	139.10312	917.43726	1093.31201	-42.45966	912.90967	1178.15442	-92.46737	916.25922	851.52808	256.29608	531.89960	1035.57666	-110.62371	461.27588	1067.11377	311.24866	166.60828	997.14496	-13.51115	96.76901	959.46606	
240	2.390	12.47589	1403.38501	1250.51709	-11.74891	1536.18018	977.50000	106.02030	1470.25317	1076.68518	-102.46964	1446.12939	1161.95642	146.68427	1296.50793	913.96631	-179.66003	1293.19702	1107.36316	40.21149	1196.49402	1134.89783	-62.98197	1298.57349	910.96881	168.17282	988.71570	808.32257	-268.14102	1019.63367	1128.93152	280.45633	806.95306	792.73120	-206.27946	859.01331	1326.47791	142.15178	915.75732	1104.25598	-41.33813	911.31653	1185.59937	-83.32117	916.21515	857.25519	258.00693	529.58752	1047.48352	-107.49665	459.66226	1068.92969	327.44958	166.22517	1026.35535	-13.38941	97.27251	959.96381	
241	2.400	14.40134	1402.33167	1258.54236	-6.94518	1535.44763	985.72748	110.62106	1468.69226	1086.90100	-98.74019	1444.66235	1168.51257	153.18523	1296.08350	924.67407	-175.86949	1292.11609	1112.49084	42.95888	1195.74182	1145.37439	-55.92825	1297.70483	918.81787	175.47098	988.99603	818.12000	-263.09583	1017.77368	1133.83618	287.55707	806.48798	802.59393	-202.95671	862.09143	1335.10632	145.78909	913.63452	1115.02039	-40.47242	909.79895	1191.20935	-74.48947	914.89673	862.50116	259.22339	526.65979	1058.97034	-104.80698	459.24963	1070.79565	340.39880	166.30457	1056.12402	-12.71364	97.18166	959.10388	
